%TF.GenerationSoftware,KiCad,Pcbnew,(6.0.0)*%
%TF.CreationDate,2023-03-29T15:00:35+03:00*%
%TF.ProjectId,shema,7368656d-612e-46b6-9963-61645f706362,rev?*%
%TF.SameCoordinates,Original*%
%TF.FileFunction,Legend,Bot*%
%TF.FilePolarity,Positive*%
%FSLAX46Y46*%
G04 Gerber Fmt 4.6, Leading zero omitted, Abs format (unit mm)*
G04 Created by KiCad (PCBNEW (6.0.0)) date 2023-03-29 15:00:35*
%MOMM*%
%LPD*%
G01*
G04 APERTURE LIST*
%ADD10C,0.150000*%
G04 APERTURE END LIST*
D10*
%TO.C,F2*%
X175593333Y-58348571D02*
X175926666Y-58348571D01*
X175926666Y-58872380D02*
X175926666Y-57872380D01*
X175450476Y-57872380D01*
X175117142Y-57967619D02*
X175069523Y-57920000D01*
X174974285Y-57872380D01*
X174736190Y-57872380D01*
X174640952Y-57920000D01*
X174593333Y-57967619D01*
X174545714Y-58062857D01*
X174545714Y-58158095D01*
X174593333Y-58300952D01*
X175164761Y-58872380D01*
X174545714Y-58872380D01*
%TO.C,D_power2*%
X126475714Y-69032380D02*
X126475714Y-68032380D01*
X126237619Y-68032380D01*
X126094761Y-68080000D01*
X125999523Y-68175238D01*
X125951904Y-68270476D01*
X125904285Y-68460952D01*
X125904285Y-68603809D01*
X125951904Y-68794285D01*
X125999523Y-68889523D01*
X126094761Y-68984761D01*
X126237619Y-69032380D01*
X126475714Y-69032380D01*
X125713809Y-69127619D02*
X124951904Y-69127619D01*
X124713809Y-68365714D02*
X124713809Y-69365714D01*
X124713809Y-68413333D02*
X124618571Y-68365714D01*
X124428095Y-68365714D01*
X124332857Y-68413333D01*
X124285238Y-68460952D01*
X124237619Y-68556190D01*
X124237619Y-68841904D01*
X124285238Y-68937142D01*
X124332857Y-68984761D01*
X124428095Y-69032380D01*
X124618571Y-69032380D01*
X124713809Y-68984761D01*
X123666190Y-69032380D02*
X123761428Y-68984761D01*
X123809047Y-68937142D01*
X123856666Y-68841904D01*
X123856666Y-68556190D01*
X123809047Y-68460952D01*
X123761428Y-68413333D01*
X123666190Y-68365714D01*
X123523333Y-68365714D01*
X123428095Y-68413333D01*
X123380476Y-68460952D01*
X123332857Y-68556190D01*
X123332857Y-68841904D01*
X123380476Y-68937142D01*
X123428095Y-68984761D01*
X123523333Y-69032380D01*
X123666190Y-69032380D01*
X122999523Y-68365714D02*
X122809047Y-69032380D01*
X122618571Y-68556190D01*
X122428095Y-69032380D01*
X122237619Y-68365714D01*
X121475714Y-68984761D02*
X121570952Y-69032380D01*
X121761428Y-69032380D01*
X121856666Y-68984761D01*
X121904285Y-68889523D01*
X121904285Y-68508571D01*
X121856666Y-68413333D01*
X121761428Y-68365714D01*
X121570952Y-68365714D01*
X121475714Y-68413333D01*
X121428095Y-68508571D01*
X121428095Y-68603809D01*
X121904285Y-68699047D01*
X120999523Y-69032380D02*
X120999523Y-68365714D01*
X120999523Y-68556190D02*
X120951904Y-68460952D01*
X120904285Y-68413333D01*
X120809047Y-68365714D01*
X120713809Y-68365714D01*
X120428095Y-68127619D02*
X120380476Y-68080000D01*
X120285238Y-68032380D01*
X120047142Y-68032380D01*
X119951904Y-68080000D01*
X119904285Y-68127619D01*
X119856666Y-68222857D01*
X119856666Y-68318095D01*
X119904285Y-68460952D01*
X120475714Y-69032380D01*
X119856666Y-69032380D01*
%TD*%
M02*
