%TF.GenerationSoftware,KiCad,Pcbnew,(6.0.0)*%
%TF.CreationDate,2023-03-29T15:00:35+03:00*%
%TF.ProjectId,shema,7368656d-612e-46b6-9963-61645f706362,rev?*%
%TF.SameCoordinates,Original*%
%TF.FileFunction,Legend,Top*%
%TF.FilePolarity,Positive*%
%FSLAX46Y46*%
G04 Gerber Fmt 4.6, Leading zero omitted, Abs format (unit mm)*
G04 Created by KiCad (PCBNEW (6.0.0)) date 2023-03-29 15:00:35*
%MOMM*%
%LPD*%
G01*
G04 APERTURE LIST*
%ADD10C,0.150000*%
%ADD11C,0.120000*%
G04 APERTURE END LIST*
D10*
%TO.C,SW2*%
X144716666Y-52474761D02*
X144859523Y-52522380D01*
X145097619Y-52522380D01*
X145192857Y-52474761D01*
X145240476Y-52427142D01*
X145288095Y-52331904D01*
X145288095Y-52236666D01*
X145240476Y-52141428D01*
X145192857Y-52093809D01*
X145097619Y-52046190D01*
X144907142Y-51998571D01*
X144811904Y-51950952D01*
X144764285Y-51903333D01*
X144716666Y-51808095D01*
X144716666Y-51712857D01*
X144764285Y-51617619D01*
X144811904Y-51570000D01*
X144907142Y-51522380D01*
X145145238Y-51522380D01*
X145288095Y-51570000D01*
X145621428Y-51522380D02*
X145859523Y-52522380D01*
X146050000Y-51808095D01*
X146240476Y-52522380D01*
X146478571Y-51522380D01*
X146811904Y-51617619D02*
X146859523Y-51570000D01*
X146954761Y-51522380D01*
X147192857Y-51522380D01*
X147288095Y-51570000D01*
X147335714Y-51617619D01*
X147383333Y-51712857D01*
X147383333Y-51808095D01*
X147335714Y-51950952D01*
X146764285Y-52522380D01*
X147383333Y-52522380D01*
%TO.C,F3*%
X207946666Y-82478571D02*
X207613333Y-82478571D01*
X207613333Y-83002380D02*
X207613333Y-82002380D01*
X208089523Y-82002380D01*
X208375238Y-82002380D02*
X208994285Y-82002380D01*
X208660952Y-82383333D01*
X208803809Y-82383333D01*
X208899047Y-82430952D01*
X208946666Y-82478571D01*
X208994285Y-82573809D01*
X208994285Y-82811904D01*
X208946666Y-82907142D01*
X208899047Y-82954761D01*
X208803809Y-83002380D01*
X208518095Y-83002380D01*
X208422857Y-82954761D01*
X208375238Y-82907142D01*
%TO.C,F1*%
X146986666Y-111688571D02*
X146653333Y-111688571D01*
X146653333Y-112212380D02*
X146653333Y-111212380D01*
X147129523Y-111212380D01*
X148034285Y-112212380D02*
X147462857Y-112212380D01*
X147748571Y-112212380D02*
X147748571Y-111212380D01*
X147653333Y-111355238D01*
X147558095Y-111450476D01*
X147462857Y-111498095D01*
%TO.C,R8*%
X121467619Y-98893333D02*
X121943809Y-98560000D01*
X121467619Y-98321904D02*
X122467619Y-98321904D01*
X122467619Y-98702857D01*
X122420000Y-98798095D01*
X122372380Y-98845714D01*
X122277142Y-98893333D01*
X122134285Y-98893333D01*
X122039047Y-98845714D01*
X121991428Y-98798095D01*
X121943809Y-98702857D01*
X121943809Y-98321904D01*
X122039047Y-99464761D02*
X122086666Y-99369523D01*
X122134285Y-99321904D01*
X122229523Y-99274285D01*
X122277142Y-99274285D01*
X122372380Y-99321904D01*
X122420000Y-99369523D01*
X122467619Y-99464761D01*
X122467619Y-99655238D01*
X122420000Y-99750476D01*
X122372380Y-99798095D01*
X122277142Y-99845714D01*
X122229523Y-99845714D01*
X122134285Y-99798095D01*
X122086666Y-99750476D01*
X122039047Y-99655238D01*
X122039047Y-99464761D01*
X121991428Y-99369523D01*
X121943809Y-99321904D01*
X121848571Y-99274285D01*
X121658095Y-99274285D01*
X121562857Y-99321904D01*
X121515238Y-99369523D01*
X121467619Y-99464761D01*
X121467619Y-99655238D01*
X121515238Y-99750476D01*
X121562857Y-99798095D01*
X121658095Y-99845714D01*
X121848571Y-99845714D01*
X121943809Y-99798095D01*
X121991428Y-99750476D01*
X122039047Y-99655238D01*
%TO.C,REF\u002A\u002A*%
X217106666Y-131262380D02*
X216773333Y-130786190D01*
X216535238Y-131262380D02*
X216535238Y-130262380D01*
X216916190Y-130262380D01*
X217011428Y-130310000D01*
X217059047Y-130357619D01*
X217106666Y-130452857D01*
X217106666Y-130595714D01*
X217059047Y-130690952D01*
X217011428Y-130738571D01*
X216916190Y-130786190D01*
X216535238Y-130786190D01*
X217535238Y-130738571D02*
X217868571Y-130738571D01*
X218011428Y-131262380D02*
X217535238Y-131262380D01*
X217535238Y-130262380D01*
X218011428Y-130262380D01*
X218773333Y-130738571D02*
X218440000Y-130738571D01*
X218440000Y-131262380D02*
X218440000Y-130262380D01*
X218916190Y-130262380D01*
X219440000Y-130262380D02*
X219440000Y-130500476D01*
X219201904Y-130405238D02*
X219440000Y-130500476D01*
X219678095Y-130405238D01*
X219297142Y-130690952D02*
X219440000Y-130500476D01*
X219582857Y-130690952D01*
X220201904Y-130262380D02*
X220201904Y-130500476D01*
X219963809Y-130405238D02*
X220201904Y-130500476D01*
X220440000Y-130405238D01*
X220059047Y-130690952D02*
X220201904Y-130500476D01*
X220344761Y-130690952D01*
X107886666Y-53792380D02*
X107553333Y-53316190D01*
X107315238Y-53792380D02*
X107315238Y-52792380D01*
X107696190Y-52792380D01*
X107791428Y-52840000D01*
X107839047Y-52887619D01*
X107886666Y-52982857D01*
X107886666Y-53125714D01*
X107839047Y-53220952D01*
X107791428Y-53268571D01*
X107696190Y-53316190D01*
X107315238Y-53316190D01*
X108315238Y-53268571D02*
X108648571Y-53268571D01*
X108791428Y-53792380D02*
X108315238Y-53792380D01*
X108315238Y-52792380D01*
X108791428Y-52792380D01*
X109553333Y-53268571D02*
X109220000Y-53268571D01*
X109220000Y-53792380D02*
X109220000Y-52792380D01*
X109696190Y-52792380D01*
X110220000Y-52792380D02*
X110220000Y-53030476D01*
X109981904Y-52935238D02*
X110220000Y-53030476D01*
X110458095Y-52935238D01*
X110077142Y-53220952D02*
X110220000Y-53030476D01*
X110362857Y-53220952D01*
X110981904Y-52792380D02*
X110981904Y-53030476D01*
X110743809Y-52935238D02*
X110981904Y-53030476D01*
X111220000Y-52935238D01*
X110839047Y-53220952D02*
X110981904Y-53030476D01*
X111124761Y-53220952D01*
X107886666Y-131262380D02*
X107553333Y-130786190D01*
X107315238Y-131262380D02*
X107315238Y-130262380D01*
X107696190Y-130262380D01*
X107791428Y-130310000D01*
X107839047Y-130357619D01*
X107886666Y-130452857D01*
X107886666Y-130595714D01*
X107839047Y-130690952D01*
X107791428Y-130738571D01*
X107696190Y-130786190D01*
X107315238Y-130786190D01*
X108315238Y-130738571D02*
X108648571Y-130738571D01*
X108791428Y-131262380D02*
X108315238Y-131262380D01*
X108315238Y-130262380D01*
X108791428Y-130262380D01*
X109553333Y-130738571D02*
X109220000Y-130738571D01*
X109220000Y-131262380D02*
X109220000Y-130262380D01*
X109696190Y-130262380D01*
X110220000Y-130262380D02*
X110220000Y-130500476D01*
X109981904Y-130405238D02*
X110220000Y-130500476D01*
X110458095Y-130405238D01*
X110077142Y-130690952D02*
X110220000Y-130500476D01*
X110362857Y-130690952D01*
X110981904Y-130262380D02*
X110981904Y-130500476D01*
X110743809Y-130405238D02*
X110981904Y-130500476D01*
X111220000Y-130405238D01*
X110839047Y-130690952D02*
X110981904Y-130500476D01*
X111124761Y-130690952D01*
X217106666Y-53792380D02*
X216773333Y-53316190D01*
X216535238Y-53792380D02*
X216535238Y-52792380D01*
X216916190Y-52792380D01*
X217011428Y-52840000D01*
X217059047Y-52887619D01*
X217106666Y-52982857D01*
X217106666Y-53125714D01*
X217059047Y-53220952D01*
X217011428Y-53268571D01*
X216916190Y-53316190D01*
X216535238Y-53316190D01*
X217535238Y-53268571D02*
X217868571Y-53268571D01*
X218011428Y-53792380D02*
X217535238Y-53792380D01*
X217535238Y-52792380D01*
X218011428Y-52792380D01*
X218773333Y-53268571D02*
X218440000Y-53268571D01*
X218440000Y-53792380D02*
X218440000Y-52792380D01*
X218916190Y-52792380D01*
X219440000Y-52792380D02*
X219440000Y-53030476D01*
X219201904Y-52935238D02*
X219440000Y-53030476D01*
X219678095Y-52935238D01*
X219297142Y-53220952D02*
X219440000Y-53030476D01*
X219582857Y-53220952D01*
X220201904Y-52792380D02*
X220201904Y-53030476D01*
X219963809Y-52935238D02*
X220201904Y-53030476D01*
X220440000Y-52935238D01*
X220059047Y-53220952D02*
X220201904Y-53030476D01*
X220344761Y-53220952D01*
%TO.C,SW3*%
X216765238Y-102806666D02*
X216717619Y-102949523D01*
X216717619Y-103187619D01*
X216765238Y-103282857D01*
X216812857Y-103330476D01*
X216908095Y-103378095D01*
X217003333Y-103378095D01*
X217098571Y-103330476D01*
X217146190Y-103282857D01*
X217193809Y-103187619D01*
X217241428Y-102997142D01*
X217289047Y-102901904D01*
X217336666Y-102854285D01*
X217431904Y-102806666D01*
X217527142Y-102806666D01*
X217622380Y-102854285D01*
X217670000Y-102901904D01*
X217717619Y-102997142D01*
X217717619Y-103235238D01*
X217670000Y-103378095D01*
X217717619Y-103711428D02*
X216717619Y-103949523D01*
X217431904Y-104140000D01*
X216717619Y-104330476D01*
X217717619Y-104568571D01*
X217717619Y-104854285D02*
X217717619Y-105473333D01*
X217336666Y-105140000D01*
X217336666Y-105282857D01*
X217289047Y-105378095D01*
X217241428Y-105425714D01*
X217146190Y-105473333D01*
X216908095Y-105473333D01*
X216812857Y-105425714D01*
X216765238Y-105378095D01*
X216717619Y-105282857D01*
X216717619Y-104997142D01*
X216765238Y-104901904D01*
X216812857Y-104854285D01*
%TO.C,R5*%
X156662380Y-123356666D02*
X156186190Y-123690000D01*
X156662380Y-123928095D02*
X155662380Y-123928095D01*
X155662380Y-123547142D01*
X155710000Y-123451904D01*
X155757619Y-123404285D01*
X155852857Y-123356666D01*
X155995714Y-123356666D01*
X156090952Y-123404285D01*
X156138571Y-123451904D01*
X156186190Y-123547142D01*
X156186190Y-123928095D01*
X155662380Y-122451904D02*
X155662380Y-122928095D01*
X156138571Y-122975714D01*
X156090952Y-122928095D01*
X156043333Y-122832857D01*
X156043333Y-122594761D01*
X156090952Y-122499523D01*
X156138571Y-122451904D01*
X156233809Y-122404285D01*
X156471904Y-122404285D01*
X156567142Y-122451904D01*
X156614761Y-122499523D01*
X156662380Y-122594761D01*
X156662380Y-122832857D01*
X156614761Y-122928095D01*
X156567142Y-122975714D01*
%TO.C,J1*%
X108212380Y-94313333D02*
X108926666Y-94313333D01*
X109069523Y-94360952D01*
X109164761Y-94456190D01*
X109212380Y-94599047D01*
X109212380Y-94694285D01*
X109212380Y-93313333D02*
X109212380Y-93884761D01*
X109212380Y-93599047D02*
X108212380Y-93599047D01*
X108355238Y-93694285D01*
X108450476Y-93789523D01*
X108498095Y-93884761D01*
%TO.C,Q1*%
X124039761Y-83097619D02*
X123944523Y-83050000D01*
X123849285Y-82954761D01*
X123706428Y-82811904D01*
X123611190Y-82764285D01*
X123515952Y-82764285D01*
X123563571Y-83002380D02*
X123468333Y-82954761D01*
X123373095Y-82859523D01*
X123325476Y-82669047D01*
X123325476Y-82335714D01*
X123373095Y-82145238D01*
X123468333Y-82050000D01*
X123563571Y-82002380D01*
X123754047Y-82002380D01*
X123849285Y-82050000D01*
X123944523Y-82145238D01*
X123992142Y-82335714D01*
X123992142Y-82669047D01*
X123944523Y-82859523D01*
X123849285Y-82954761D01*
X123754047Y-83002380D01*
X123563571Y-83002380D01*
X124944523Y-83002380D02*
X124373095Y-83002380D01*
X124658809Y-83002380D02*
X124658809Y-82002380D01*
X124563571Y-82145238D01*
X124468333Y-82240476D01*
X124373095Y-82288095D01*
%TO.C,R7*%
X201386666Y-96387619D02*
X201720000Y-96863809D01*
X201958095Y-96387619D02*
X201958095Y-97387619D01*
X201577142Y-97387619D01*
X201481904Y-97340000D01*
X201434285Y-97292380D01*
X201386666Y-97197142D01*
X201386666Y-97054285D01*
X201434285Y-96959047D01*
X201481904Y-96911428D01*
X201577142Y-96863809D01*
X201958095Y-96863809D01*
X201053333Y-97387619D02*
X200386666Y-97387619D01*
X200815238Y-96387619D01*
%TO.C,D_power3*%
X200207619Y-126254285D02*
X201207619Y-126254285D01*
X201207619Y-126492380D01*
X201160000Y-126635238D01*
X201064761Y-126730476D01*
X200969523Y-126778095D01*
X200779047Y-126825714D01*
X200636190Y-126825714D01*
X200445714Y-126778095D01*
X200350476Y-126730476D01*
X200255238Y-126635238D01*
X200207619Y-126492380D01*
X200207619Y-126254285D01*
X200112380Y-127016190D02*
X200112380Y-127778095D01*
X200874285Y-128016190D02*
X199874285Y-128016190D01*
X200826666Y-128016190D02*
X200874285Y-128111428D01*
X200874285Y-128301904D01*
X200826666Y-128397142D01*
X200779047Y-128444761D01*
X200683809Y-128492380D01*
X200398095Y-128492380D01*
X200302857Y-128444761D01*
X200255238Y-128397142D01*
X200207619Y-128301904D01*
X200207619Y-128111428D01*
X200255238Y-128016190D01*
X200207619Y-129063809D02*
X200255238Y-128968571D01*
X200302857Y-128920952D01*
X200398095Y-128873333D01*
X200683809Y-128873333D01*
X200779047Y-128920952D01*
X200826666Y-128968571D01*
X200874285Y-129063809D01*
X200874285Y-129206666D01*
X200826666Y-129301904D01*
X200779047Y-129349523D01*
X200683809Y-129397142D01*
X200398095Y-129397142D01*
X200302857Y-129349523D01*
X200255238Y-129301904D01*
X200207619Y-129206666D01*
X200207619Y-129063809D01*
X200874285Y-129730476D02*
X200207619Y-129920952D01*
X200683809Y-130111428D01*
X200207619Y-130301904D01*
X200874285Y-130492380D01*
X200255238Y-131254285D02*
X200207619Y-131159047D01*
X200207619Y-130968571D01*
X200255238Y-130873333D01*
X200350476Y-130825714D01*
X200731428Y-130825714D01*
X200826666Y-130873333D01*
X200874285Y-130968571D01*
X200874285Y-131159047D01*
X200826666Y-131254285D01*
X200731428Y-131301904D01*
X200636190Y-131301904D01*
X200540952Y-130825714D01*
X200207619Y-131730476D02*
X200874285Y-131730476D01*
X200683809Y-131730476D02*
X200779047Y-131778095D01*
X200826666Y-131825714D01*
X200874285Y-131920952D01*
X200874285Y-132016190D01*
X201207619Y-132254285D02*
X201207619Y-132873333D01*
X200826666Y-132540000D01*
X200826666Y-132682857D01*
X200779047Y-132778095D01*
X200731428Y-132825714D01*
X200636190Y-132873333D01*
X200398095Y-132873333D01*
X200302857Y-132825714D01*
X200255238Y-132778095D01*
X200207619Y-132682857D01*
X200207619Y-132397142D01*
X200255238Y-132301904D01*
X200302857Y-132254285D01*
%TO.C,D7*%
X208811904Y-95702380D02*
X208811904Y-94702380D01*
X209050000Y-94702380D01*
X209192857Y-94750000D01*
X209288095Y-94845238D01*
X209335714Y-94940476D01*
X209383333Y-95130952D01*
X209383333Y-95273809D01*
X209335714Y-95464285D01*
X209288095Y-95559523D01*
X209192857Y-95654761D01*
X209050000Y-95702380D01*
X208811904Y-95702380D01*
X209716666Y-94702380D02*
X210383333Y-94702380D01*
X209954761Y-95702380D01*
X205478095Y-94432380D02*
X205478095Y-93432380D01*
X206049523Y-94432380D02*
X205620952Y-93860952D01*
X206049523Y-93432380D02*
X205478095Y-94003809D01*
%TO.C,D_power1*%
X125205714Y-121467619D02*
X125205714Y-122467619D01*
X124967619Y-122467619D01*
X124824761Y-122420000D01*
X124729523Y-122324761D01*
X124681904Y-122229523D01*
X124634285Y-122039047D01*
X124634285Y-121896190D01*
X124681904Y-121705714D01*
X124729523Y-121610476D01*
X124824761Y-121515238D01*
X124967619Y-121467619D01*
X125205714Y-121467619D01*
X124443809Y-121372380D02*
X123681904Y-121372380D01*
X123443809Y-122134285D02*
X123443809Y-121134285D01*
X123443809Y-122086666D02*
X123348571Y-122134285D01*
X123158095Y-122134285D01*
X123062857Y-122086666D01*
X123015238Y-122039047D01*
X122967619Y-121943809D01*
X122967619Y-121658095D01*
X123015238Y-121562857D01*
X123062857Y-121515238D01*
X123158095Y-121467619D01*
X123348571Y-121467619D01*
X123443809Y-121515238D01*
X122396190Y-121467619D02*
X122491428Y-121515238D01*
X122539047Y-121562857D01*
X122586666Y-121658095D01*
X122586666Y-121943809D01*
X122539047Y-122039047D01*
X122491428Y-122086666D01*
X122396190Y-122134285D01*
X122253333Y-122134285D01*
X122158095Y-122086666D01*
X122110476Y-122039047D01*
X122062857Y-121943809D01*
X122062857Y-121658095D01*
X122110476Y-121562857D01*
X122158095Y-121515238D01*
X122253333Y-121467619D01*
X122396190Y-121467619D01*
X121729523Y-122134285D02*
X121539047Y-121467619D01*
X121348571Y-121943809D01*
X121158095Y-121467619D01*
X120967619Y-122134285D01*
X120205714Y-121515238D02*
X120300952Y-121467619D01*
X120491428Y-121467619D01*
X120586666Y-121515238D01*
X120634285Y-121610476D01*
X120634285Y-121991428D01*
X120586666Y-122086666D01*
X120491428Y-122134285D01*
X120300952Y-122134285D01*
X120205714Y-122086666D01*
X120158095Y-121991428D01*
X120158095Y-121896190D01*
X120634285Y-121800952D01*
X119729523Y-121467619D02*
X119729523Y-122134285D01*
X119729523Y-121943809D02*
X119681904Y-122039047D01*
X119634285Y-122086666D01*
X119539047Y-122134285D01*
X119443809Y-122134285D01*
X118586666Y-121467619D02*
X119158095Y-121467619D01*
X118872380Y-121467619D02*
X118872380Y-122467619D01*
X118967619Y-122324761D01*
X119062857Y-122229523D01*
X119158095Y-122181904D01*
%TO.C,J3*%
X197786664Y-43902380D02*
X197786664Y-44616666D01*
X197739045Y-44759523D01*
X197643807Y-44854761D01*
X197500950Y-44902380D01*
X197405712Y-44902380D01*
X198167617Y-43902380D02*
X198786664Y-43902380D01*
X198453331Y-44283333D01*
X198596188Y-44283333D01*
X198691426Y-44330952D01*
X198739045Y-44378571D01*
X198786664Y-44473809D01*
X198786664Y-44711904D01*
X198739045Y-44807142D01*
X198691426Y-44854761D01*
X198596188Y-44902380D01*
X198310474Y-44902380D01*
X198215236Y-44854761D01*
X198167617Y-44807142D01*
%TO.C,D5*%
X165552380Y-132818095D02*
X164552380Y-132818095D01*
X164552380Y-132580000D01*
X164600000Y-132437142D01*
X164695238Y-132341904D01*
X164790476Y-132294285D01*
X164980952Y-132246666D01*
X165123809Y-132246666D01*
X165314285Y-132294285D01*
X165409523Y-132341904D01*
X165504761Y-132437142D01*
X165552380Y-132580000D01*
X165552380Y-132818095D01*
X164552380Y-131341904D02*
X164552380Y-131818095D01*
X165028571Y-131865714D01*
X164980952Y-131818095D01*
X164933333Y-131722857D01*
X164933333Y-131484761D01*
X164980952Y-131389523D01*
X165028571Y-131341904D01*
X165123809Y-131294285D01*
X165361904Y-131294285D01*
X165457142Y-131341904D01*
X165504761Y-131389523D01*
X165552380Y-131484761D01*
X165552380Y-131722857D01*
X165504761Y-131818095D01*
X165457142Y-131865714D01*
X164812380Y-128531904D02*
X163812380Y-128531904D01*
X164812380Y-127960476D02*
X164240952Y-128389047D01*
X163812380Y-127960476D02*
X164383809Y-128531904D01*
%TO.C,J4*%
X220257619Y-68486666D02*
X219543333Y-68486666D01*
X219400476Y-68439047D01*
X219305238Y-68343809D01*
X219257619Y-68200952D01*
X219257619Y-68105714D01*
X219924285Y-69391428D02*
X219257619Y-69391428D01*
X220305238Y-69153333D02*
X219590952Y-68915238D01*
X219590952Y-69534285D01*
%TO.C,J2*%
X173293333Y-141517619D02*
X173293333Y-140803333D01*
X173340952Y-140660476D01*
X173436190Y-140565238D01*
X173579047Y-140517619D01*
X173674285Y-140517619D01*
X172864761Y-141422380D02*
X172817142Y-141470000D01*
X172721904Y-141517619D01*
X172483809Y-141517619D01*
X172388571Y-141470000D01*
X172340952Y-141422380D01*
X172293333Y-141327142D01*
X172293333Y-141231904D01*
X172340952Y-141089047D01*
X172912380Y-140517619D01*
X172293333Y-140517619D01*
%TO.C,SW1*%
X145713333Y-132945238D02*
X145570476Y-132897619D01*
X145332380Y-132897619D01*
X145237142Y-132945238D01*
X145189523Y-132992857D01*
X145141904Y-133088095D01*
X145141904Y-133183333D01*
X145189523Y-133278571D01*
X145237142Y-133326190D01*
X145332380Y-133373809D01*
X145522857Y-133421428D01*
X145618095Y-133469047D01*
X145665714Y-133516666D01*
X145713333Y-133611904D01*
X145713333Y-133707142D01*
X145665714Y-133802380D01*
X145618095Y-133850000D01*
X145522857Y-133897619D01*
X145284761Y-133897619D01*
X145141904Y-133850000D01*
X144808571Y-133897619D02*
X144570476Y-132897619D01*
X144380000Y-133611904D01*
X144189523Y-132897619D01*
X143951428Y-133897619D01*
X143046666Y-132897619D02*
X143618095Y-132897619D01*
X143332380Y-132897619D02*
X143332380Y-133897619D01*
X143427619Y-133754761D01*
X143522857Y-133659523D01*
X143618095Y-133611904D01*
%TO.C,D1*%
X159202380Y-141708095D02*
X158202380Y-141708095D01*
X158202380Y-141470000D01*
X158250000Y-141327142D01*
X158345238Y-141231904D01*
X158440476Y-141184285D01*
X158630952Y-141136666D01*
X158773809Y-141136666D01*
X158964285Y-141184285D01*
X159059523Y-141231904D01*
X159154761Y-141327142D01*
X159202380Y-141470000D01*
X159202380Y-141708095D01*
X159202380Y-140184285D02*
X159202380Y-140755714D01*
X159202380Y-140470000D02*
X158202380Y-140470000D01*
X158345238Y-140565238D01*
X158440476Y-140660476D01*
X158488095Y-140755714D01*
%TO.C,DC_DC1*%
X151137619Y-81200952D02*
X152137619Y-81200952D01*
X152137619Y-81439047D01*
X152090000Y-81581904D01*
X151994761Y-81677142D01*
X151899523Y-81724761D01*
X151709047Y-81772380D01*
X151566190Y-81772380D01*
X151375714Y-81724761D01*
X151280476Y-81677142D01*
X151185238Y-81581904D01*
X151137619Y-81439047D01*
X151137619Y-81200952D01*
X151232857Y-82772380D02*
X151185238Y-82724761D01*
X151137619Y-82581904D01*
X151137619Y-82486666D01*
X151185238Y-82343809D01*
X151280476Y-82248571D01*
X151375714Y-82200952D01*
X151566190Y-82153333D01*
X151709047Y-82153333D01*
X151899523Y-82200952D01*
X151994761Y-82248571D01*
X152090000Y-82343809D01*
X152137619Y-82486666D01*
X152137619Y-82581904D01*
X152090000Y-82724761D01*
X152042380Y-82772380D01*
X151042380Y-82962857D02*
X151042380Y-83724761D01*
X151137619Y-83962857D02*
X152137619Y-83962857D01*
X152137619Y-84200952D01*
X152090000Y-84343809D01*
X151994761Y-84439047D01*
X151899523Y-84486666D01*
X151709047Y-84534285D01*
X151566190Y-84534285D01*
X151375714Y-84486666D01*
X151280476Y-84439047D01*
X151185238Y-84343809D01*
X151137619Y-84200952D01*
X151137619Y-83962857D01*
X151232857Y-85534285D02*
X151185238Y-85486666D01*
X151137619Y-85343809D01*
X151137619Y-85248571D01*
X151185238Y-85105714D01*
X151280476Y-85010476D01*
X151375714Y-84962857D01*
X151566190Y-84915238D01*
X151709047Y-84915238D01*
X151899523Y-84962857D01*
X151994761Y-85010476D01*
X152090000Y-85105714D01*
X152137619Y-85248571D01*
X152137619Y-85343809D01*
X152090000Y-85486666D01*
X152042380Y-85534285D01*
X151137619Y-86486666D02*
X151137619Y-85915238D01*
X151137619Y-86200952D02*
X152137619Y-86200952D01*
X151994761Y-86105714D01*
X151899523Y-86010476D01*
X151851904Y-85915238D01*
%TO.C,R6*%
X181443333Y-41552380D02*
X181110000Y-41076190D01*
X180871904Y-41552380D02*
X180871904Y-40552380D01*
X181252857Y-40552380D01*
X181348095Y-40600000D01*
X181395714Y-40647619D01*
X181443333Y-40742857D01*
X181443333Y-40885714D01*
X181395714Y-40980952D01*
X181348095Y-41028571D01*
X181252857Y-41076190D01*
X180871904Y-41076190D01*
X182300476Y-40552380D02*
X182110000Y-40552380D01*
X182014761Y-40600000D01*
X181967142Y-40647619D01*
X181871904Y-40790476D01*
X181824285Y-40980952D01*
X181824285Y-41361904D01*
X181871904Y-41457142D01*
X181919523Y-41504761D01*
X182014761Y-41552380D01*
X182205238Y-41552380D01*
X182300476Y-41504761D01*
X182348095Y-41457142D01*
X182395714Y-41361904D01*
X182395714Y-41123809D01*
X182348095Y-41028571D01*
X182300476Y-40980952D01*
X182205238Y-40933333D01*
X182014761Y-40933333D01*
X181919523Y-40980952D01*
X181871904Y-41028571D01*
X181824285Y-41123809D01*
%TO.C,D6*%
X171981904Y-47442380D02*
X171981904Y-46442380D01*
X172220000Y-46442380D01*
X172362857Y-46490000D01*
X172458095Y-46585238D01*
X172505714Y-46680476D01*
X172553333Y-46870952D01*
X172553333Y-47013809D01*
X172505714Y-47204285D01*
X172458095Y-47299523D01*
X172362857Y-47394761D01*
X172220000Y-47442380D01*
X171981904Y-47442380D01*
X173410476Y-46442380D02*
X173220000Y-46442380D01*
X173124761Y-46490000D01*
X173077142Y-46537619D01*
X172981904Y-46680476D01*
X172934285Y-46870952D01*
X172934285Y-47251904D01*
X172981904Y-47347142D01*
X173029523Y-47394761D01*
X173124761Y-47442380D01*
X173315238Y-47442380D01*
X173410476Y-47394761D01*
X173458095Y-47347142D01*
X173505714Y-47251904D01*
X173505714Y-47013809D01*
X173458095Y-46918571D01*
X173410476Y-46870952D01*
X173315238Y-46823333D01*
X173124761Y-46823333D01*
X173029523Y-46870952D01*
X172981904Y-46918571D01*
X172934285Y-47013809D01*
%TO.C,D4*%
X137542380Y-94718095D02*
X136542380Y-94718095D01*
X136542380Y-94480000D01*
X136590000Y-94337142D01*
X136685238Y-94241904D01*
X136780476Y-94194285D01*
X136970952Y-94146666D01*
X137113809Y-94146666D01*
X137304285Y-94194285D01*
X137399523Y-94241904D01*
X137494761Y-94337142D01*
X137542380Y-94480000D01*
X137542380Y-94718095D01*
X136875714Y-93289523D02*
X137542380Y-93289523D01*
X136494761Y-93527619D02*
X137209047Y-93765714D01*
X137209047Y-93146666D01*
X137172380Y-89161904D02*
X136172380Y-89161904D01*
X137172380Y-88590476D02*
X136600952Y-89019047D01*
X136172380Y-88590476D02*
X136743809Y-89161904D01*
%TO.C,D2*%
X164568095Y-47807619D02*
X164568095Y-48807619D01*
X164330000Y-48807619D01*
X164187142Y-48760000D01*
X164091904Y-48664761D01*
X164044285Y-48569523D01*
X163996666Y-48379047D01*
X163996666Y-48236190D01*
X164044285Y-48045714D01*
X164091904Y-47950476D01*
X164187142Y-47855238D01*
X164330000Y-47807619D01*
X164568095Y-47807619D01*
X163615714Y-48712380D02*
X163568095Y-48760000D01*
X163472857Y-48807619D01*
X163234761Y-48807619D01*
X163139523Y-48760000D01*
X163091904Y-48712380D01*
X163044285Y-48617142D01*
X163044285Y-48521904D01*
X163091904Y-48379047D01*
X163663333Y-47807619D01*
X163044285Y-47807619D01*
%TO.C,D3*%
X219738095Y-98347619D02*
X219738095Y-99347619D01*
X219500000Y-99347619D01*
X219357142Y-99300000D01*
X219261904Y-99204761D01*
X219214285Y-99109523D01*
X219166666Y-98919047D01*
X219166666Y-98776190D01*
X219214285Y-98585714D01*
X219261904Y-98490476D01*
X219357142Y-98395238D01*
X219500000Y-98347619D01*
X219738095Y-98347619D01*
X218833333Y-99347619D02*
X218214285Y-99347619D01*
X218547619Y-98966666D01*
X218404761Y-98966666D01*
X218309523Y-98919047D01*
X218261904Y-98871428D01*
X218214285Y-98776190D01*
X218214285Y-98538095D01*
X218261904Y-98442857D01*
X218309523Y-98395238D01*
X218404761Y-98347619D01*
X218690476Y-98347619D01*
X218785714Y-98395238D01*
X218833333Y-98442857D01*
D11*
%TO.C,SW2*%
X143271428Y-58720000D02*
X149271428Y-58720000D01*
X149271428Y-58720000D02*
X149271428Y-62720000D01*
X149271428Y-62720000D02*
X143271428Y-62720000D01*
X143271428Y-62720000D02*
X143271428Y-58720000D01*
%TO.C,F3*%
X219230000Y-89070000D02*
X197330000Y-89070000D01*
X197330000Y-89070000D02*
X197330000Y-78570000D01*
X197330000Y-78570000D02*
X219230000Y-78570000D01*
X219230000Y-78570000D02*
X219230000Y-89070000D01*
%TO.C,F2*%
X164310000Y-50630000D02*
X186210000Y-50630000D01*
X186210000Y-50630000D02*
X186210000Y-61130000D01*
X186210000Y-61130000D02*
X164310000Y-61130000D01*
X164310000Y-61130000D02*
X164310000Y-50630000D01*
%TO.C,F1*%
X136370000Y-109050000D02*
X158270000Y-109050000D01*
X158270000Y-109050000D02*
X158270000Y-119550000D01*
X158270000Y-119550000D02*
X136370000Y-119550000D01*
X136370000Y-119550000D02*
X136370000Y-109050000D01*
%TO.C,R8*%
X125260000Y-97510000D02*
X123660000Y-97510000D01*
X123660000Y-97510000D02*
X123660000Y-100610000D01*
X123660000Y-100610000D02*
X125260000Y-100610000D01*
X125260000Y-100610000D02*
X125260000Y-97510000D01*
%TO.C,SW3*%
X201200000Y-107140000D02*
X205200000Y-107140000D01*
X205200000Y-107140000D02*
X205200000Y-101140000D01*
X205200000Y-101140000D02*
X201200000Y-101140000D01*
X201200000Y-101140000D02*
X201200000Y-107140000D01*
%TO.C,R5*%
X161760000Y-124740000D02*
X163360000Y-124740000D01*
X163360000Y-124740000D02*
X163360000Y-121640000D01*
X163360000Y-121640000D02*
X161760000Y-121640000D01*
X161760000Y-121640000D02*
X161760000Y-124740000D01*
%TO.C,J1*%
X114840000Y-96980000D02*
X118840000Y-96980000D01*
X118840000Y-96980000D02*
X118840000Y-90980000D01*
X118840000Y-90980000D02*
X114840000Y-90980000D01*
X114840000Y-90980000D02*
X114840000Y-96980000D01*
%TO.C,Q1*%
X124460000Y-87340000D02*
X123810000Y-87340000D01*
X124460000Y-90460000D02*
X123810000Y-90460000D01*
X124460000Y-87340000D02*
X125110000Y-87340000D01*
X124460000Y-90460000D02*
X126135000Y-90460000D01*
%TO.C,R7*%
X202770000Y-92100000D02*
X199670000Y-92100000D01*
X199670000Y-92100000D02*
X199670000Y-90500000D01*
X199670000Y-90500000D02*
X202770000Y-90500000D01*
X202770000Y-90500000D02*
X202770000Y-92100000D01*
%TO.C,D_power3*%
X192450000Y-129540000D02*
G75*
G03*
X192450000Y-129540000I-1950000J0D01*
G01*
%TO.C,D7*%
X211670000Y-90180000D02*
X207430000Y-90180000D01*
X207430000Y-92420000D02*
X211670000Y-92420000D01*
X208030000Y-90180000D02*
X208030000Y-92420000D01*
X212320000Y-91300000D02*
X211670000Y-91300000D01*
X207430000Y-90180000D02*
X207430000Y-92420000D01*
X208270000Y-90180000D02*
X208270000Y-92420000D01*
X206780000Y-91300000D02*
X207430000Y-91300000D01*
X211670000Y-92420000D02*
X211670000Y-90180000D01*
X208150000Y-90180000D02*
X208150000Y-92420000D01*
%TO.C,D_power1*%
X123870000Y-111760000D02*
G75*
G03*
X123870000Y-111760000I-1950000J0D01*
G01*
%TO.C,J3*%
X195120000Y-51340000D02*
X201120000Y-51340000D01*
X201120000Y-51340000D02*
X201120000Y-55340000D01*
X201120000Y-55340000D02*
X195120000Y-55340000D01*
X195120000Y-55340000D02*
X195120000Y-51340000D01*
%TO.C,D5*%
X162560000Y-129310000D02*
X162560000Y-129960000D01*
X163680000Y-130800000D02*
X161440000Y-130800000D01*
X163680000Y-130560000D02*
X161440000Y-130560000D01*
X161440000Y-134200000D02*
X163680000Y-134200000D01*
X161440000Y-129960000D02*
X161440000Y-134200000D01*
X163680000Y-130680000D02*
X161440000Y-130680000D01*
X163680000Y-129960000D02*
X161440000Y-129960000D01*
X162560000Y-134850000D02*
X162560000Y-134200000D01*
X163680000Y-134200000D02*
X163680000Y-129960000D01*
%TO.C,J4*%
X208940000Y-71820000D02*
X212940000Y-71820000D01*
X212940000Y-71820000D02*
X212940000Y-65820000D01*
X212940000Y-65820000D02*
X208940000Y-65820000D01*
X208940000Y-65820000D02*
X208940000Y-71820000D01*
%TO.C,J2*%
X169960000Y-130320000D02*
X175960000Y-130320000D01*
X175960000Y-130320000D02*
X175960000Y-134320000D01*
X175960000Y-134320000D02*
X169960000Y-134320000D01*
X169960000Y-134320000D02*
X169960000Y-130320000D01*
%TO.C,SW1*%
X141380000Y-122460000D02*
X147380000Y-122460000D01*
X147380000Y-122460000D02*
X147380000Y-126460000D01*
X147380000Y-126460000D02*
X141380000Y-126460000D01*
X141380000Y-126460000D02*
X141380000Y-122460000D01*
%TO.C,DC_DC1*%
X193040000Y-96520000D02*
X142240000Y-96520000D01*
X193040000Y-96520000D02*
X193040000Y-71120000D01*
X142240000Y-96520000D02*
X142240000Y-71120000D01*
X193040000Y-71120000D02*
X142240000Y-71120000D01*
%TO.C,R6*%
X180060000Y-42380000D02*
X183160000Y-42380000D01*
X183160000Y-42380000D02*
X183160000Y-43980000D01*
X183160000Y-43980000D02*
X180060000Y-43980000D01*
X180060000Y-43980000D02*
X180060000Y-42380000D01*
%TO.C,D6*%
X174840000Y-42060000D02*
X170600000Y-42060000D01*
X170600000Y-42060000D02*
X170600000Y-44300000D01*
X169950000Y-43180000D02*
X170600000Y-43180000D01*
X175490000Y-43180000D02*
X174840000Y-43180000D01*
X174840000Y-44300000D02*
X174840000Y-42060000D01*
X174000000Y-44300000D02*
X174000000Y-42060000D01*
X170600000Y-44300000D02*
X174840000Y-44300000D01*
X174240000Y-44300000D02*
X174240000Y-42060000D01*
X174120000Y-44300000D02*
X174120000Y-42060000D01*
%TO.C,D4*%
X136090000Y-92280000D02*
X133150000Y-92280000D01*
X134620000Y-97720000D02*
X134620000Y-96700000D01*
X136090000Y-92040000D02*
X133150000Y-92040000D01*
X133150000Y-91260000D02*
X133150000Y-96700000D01*
X134620000Y-90240000D02*
X134620000Y-91260000D01*
X136090000Y-92160000D02*
X133150000Y-92160000D01*
X136090000Y-96700000D02*
X136090000Y-91260000D01*
X136090000Y-91260000D02*
X133150000Y-91260000D01*
X133150000Y-96700000D02*
X136090000Y-96700000D01*
%TO.C,D_power2*%
X125140000Y-73660000D02*
G75*
G03*
X125140000Y-73660000I-1950000J0D01*
G01*
%TD*%
M02*
