M48
; DRILL file {KiCad (6.0.0)} date Wed Mar 29 10:45:16 2023
; FORMAT={-:-/ absolute / metric / decimal}
; #@! TF.CreationDate,2023-03-29T10:45:16+03:00
; #@! TF.GenerationSoftware,Kicad,Pcbnew,(6.0.0)
; #@! TF.FileFunction,Plated,1,2,PTH
FMAT,2
METRIC
; #@! TA.AperFunction,Plated,PTH,ComponentDrill
T1C0.500
; #@! TA.AperFunction,Plated,PTH,ComponentDrill
T2C0.800
; #@! TA.AperFunction,Plated,PTH,ComponentDrill
T3C1.100
; #@! TA.AperFunction,Plated,PTH,ComponentDrill
T4C1.300
; #@! TA.AperFunction,Plated,PTH,ComponentDrill
T5C5.300
%
G90
G05
T1
X120.65Y-111.76
X121.92Y-73.66
X123.19Y-111.76
X124.46Y-73.66
X190.5Y-128.27
X190.5Y-130.81
T2
X162.56Y-128.27
X162.56Y-135.89
X168.91Y-43.18
X176.53Y-43.18
X205.74Y-91.3
X213.36Y-91.3
T3
X134.62Y-88.9
X134.62Y-99.06
T4
X157.44Y-73.62
X157.44Y-83.82
X157.44Y-94.02
X177.74Y-86.42
X177.8Y-81.22
T5
X109.22Y-45.72
X109.22Y-139.7
X218.44Y-45.72
X218.44Y-139.7
T1
G00X136.12Y-113.825
M15
G01X136.12Y-114.775
M16
G05
G00X158.52Y-113.825
M15
G01X158.52Y-114.775
M16
G05
G00X164.06Y-55.405
M15
G01X164.06Y-56.355
M16
G05
G00X186.46Y-55.405
M15
G01X186.46Y-56.355
M16
G05
G00X197.08Y-84.295
M15
G01X197.08Y-83.345
M16
G05
G00X219.48Y-84.295
M15
G01X219.48Y-83.345
M16
G05
T0
M30
